<svg width="33" height="33" viewBox="0 0 30 30" fill="none" xmlns="http://www.w3.org/2000/svg">
<path d="M16.8164 0C16.3306 0 15.9375 0.393105 15.9375 0.878906V13.2422C15.9375 13.728 16.3306 14.1211 16.8164 14.1211H29.1211C29.6069 14.1211 30 13.728 30 13.2422C30 5.97234 24.0862 0 16.8164 0Z" fill="black"/>
<path d="M18.4446 28.0293L14.1797 16.5981V4.45312C14.1797 3.96732 13.7866 3.57422 13.3008 3.57422C6.03094 3.57422 0 9.48797 0 16.7578C0 24.0277 6.03094 30 13.3008 30C14.8921 30 16.4499 29.7176 17.9305 29.1614C18.3846 28.9906 18.6146 28.4842 18.4446 28.0293Z" fill="black"/>
<path d="M29.1211 15.8789H16.8164C16.528 15.8789 16.2585 16.0205 16.0937 16.2574C15.9298 16.4943 15.892 16.7964 15.9933 17.0668L20.314 28.6473C20.3964 28.8653 20.5612 29.0421 20.7741 29.1383C20.987 29.2351 21.227 29.2433 21.4469 29.1606C26.5625 27.2354 30 22.2166 30 16.7578C30 16.272 29.6069 15.8789 29.1211 15.8789Z" fill="black"/>
</svg>
