<svg width="25" height="25" viewBox="0 0 25 25" fill="none" xmlns="http://www.w3.org/2000/svg">
<g clip-path="url(#clip0)">
<path d="M24.7855 20.6423L20.5614 16.4183L22.6331 14.3467C22.8126 14.1672 22.8863 13.9076 22.828 13.6605C22.7696 13.4134 22.5876 13.2142 22.3468 13.134L9.9172 8.99074C9.65407 8.90299 9.36383 8.9715 9.16769 9.16769C8.9715 9.36388 8.90299 9.65402 8.99074 9.9172L13.134 22.3468C13.2143 22.5877 13.4135 22.7697 13.6605 22.828C13.9075 22.8865 14.1672 22.8127 14.3467 22.6331L16.4183 20.5615L20.6424 24.7855C20.7854 24.9285 20.9728 25.0001 21.1602 25.0001C21.3476 25.0001 21.5351 24.9286 21.6781 24.7855L24.7855 21.6781C25.0715 21.3921 25.0715 20.9283 24.7855 20.6423ZM21.1602 23.2318L16.9361 19.0078C16.6502 18.7218 16.1863 18.7218 15.9004 19.0078L14.1488 20.7593L10.8436 10.8437L20.7593 14.1489L19.0078 15.9004C18.722 16.1861 18.7217 16.6502 19.0078 16.9362L23.2318 21.1602L21.1602 23.2318Z" fill="#787878"/>
<path d="M9.52148 5.85938C9.92598 5.85938 10.2539 5.53145 10.2539 5.12695V0.732422C10.2539 0.32793 9.92598 0 9.52148 0C9.11699 0 8.78906 0.32793 8.78906 0.732422V5.12695C8.78906 5.53145 9.11699 5.85938 9.52148 5.85938Z" fill="#787878"/>
<path d="M3.82454 2.78875C3.53855 2.50271 3.07478 2.50271 2.78874 2.78875C2.50271 3.07478 2.50271 3.5385 2.78874 3.82454L5.89617 6.93196C6.18215 7.21799 6.64597 7.21799 6.93196 6.93196C7.21799 6.64592 7.21799 6.1822 6.93196 5.89617L3.82454 2.78875Z" fill="#787878"/>
<path d="M5.89617 12.111L2.78874 15.2184C2.50271 15.5045 2.50271 15.9682 2.78874 16.2542C3.07473 16.5403 3.53855 16.5403 3.82454 16.2542L6.93196 13.1468C7.21799 12.8608 7.21799 12.397 6.93196 12.111C6.64592 11.825 6.18215 11.825 5.89617 12.111Z" fill="#787878"/>
<path d="M13.1468 6.93196L16.2542 3.82454C16.5403 3.5385 16.5403 3.07478 16.2542 2.78875C15.9682 2.50271 15.5045 2.50271 15.2184 2.78875L12.111 5.89617C11.825 6.1822 11.825 6.64592 12.111 6.93196C12.397 7.21799 12.8608 7.21799 13.1468 6.93196Z" fill="#787878"/>
<path d="M5.85938 9.52148C5.85938 9.11699 5.53145 8.78906 5.12695 8.78906H0.732422C0.32793 8.78906 0 9.11699 0 9.52148C0 9.92598 0.32793 10.2539 0.732422 10.2539H5.12695C5.53145 10.2539 5.85938 9.92598 5.85938 9.52148Z" fill="#787878"/>
</g>
<defs>
<clipPath id="clip0">
<rect width="25" height="25" fill="white"/>
</clipPath>
</defs>
</svg>
