<svg width="76" height="62" viewBox="0 0 76 62" fill="none" xmlns="http://www.w3.org/2000/svg">
<!-- <path fill-rule="evenodd" clip-rule="evenodd" d="M22.2009 23.9928C24.2793 23.0563 28.0115 23.8735 29.3665 24.1984C32.5165 24.9541 35.6854 26.5873 36.6647 29.1459C37.7683 32.0294 35.5664 32.9371 35.2425 32.7888C33.0619 32.9425 30.465 31.5712 28.1799 31.2172C26.3248 30.9274 24.3679 30.6745 22.6298 29.6884C21.3608 30.3867 18.4947 30.7642 16.1815 31.3748C14.2115 31.8946 13.358 33.0218 11.5317 32.7821C9.34284 32.4949 10.2388 27.8895 12.6783 26.0237C15.3482 23.9819 19.8638 23.1539 22.2009 23.9928ZM18.0855 43.6848C19.9039 44.1283 20.026 40.1413 20.2297 38.7327C20.3889 37.6323 21.2864 34.7943 23.562 34.9168C25.8375 35.0392 26.6929 37.4169 26.5774 38.8957C26.5026 39.8547 25.6192 44.7124 28.4389 45.3269C30.2366 45.3206 32.3163 45.1992 34.2065 44.8505C36.4312 44.3465 39.3242 42.5817 40.0883 46.0572C40.3633 47.308 30.5633 51.0243 26.2145 51.3604C21.8042 52.2545 16.6441 50.8797 13.5041 47.5045C12.7897 46.7367 10.7778 43.5496 10.6344 42.7687C10.3332 41.1281 11.0306 40.0723 13.0598 40.6506C14.4933 41.4164 16.9161 43.3996 18.0855 43.6848Z" fill="black"/> -->
<path fill-rule="evenodd" clip-rule="evenodd" d="M9.29153 19.8919C12.0964 21.2433 16.0095 19.2501 17.8954 17.1623C18.5819 16.4021 19.1115 14.2271 18.8474 12.8477C18.1322 9.11199 15.4447 6.86992 12.6075 6.1043C8.6746 5.04272 4.71663 7.73201 5.17806 10.9055C5.61557 13.9132 6.27847 18.276 9.29153 19.8919M28.3824 12.7161C28.6072 16.7872 31.8754 20.3506 35.7814 21.4063C42.0748 23.1631 45.185 18.7374 46.5938 13.9697C46.7338 13.4959 47.0629 12.0499 46.1798 10.8096C42.7068 5.93079 34.2569 6.76241 30.0366 8.10182C28.8012 9.28362 28.2963 10.9893 28.3824 12.7161M6.24393 5.6943C6.2458 5.69673 6.24804 5.69878 6.24991 5.70121C6.2643 5.69243 6.27851 5.68345 6.29327 5.67485C6.27701 5.68158 6.25982 5.68738 6.24393 5.6943M0.978376 6.16484C1.34393 2.01986 14.3446 3.60699 15.8646 3.94671C20.0128 5.1672 23.5957 8.48768 28.2336 7.02806C33.0391 1.66911 49.2218 3.20595 52.6142 5.93581C53.2563 5.68379 54.0372 5.81896 54.8645 6.05678C59.1133 5.90328 78.5096 7.36852 74.5423 12.7933C73.9401 13.2111 73.3385 12.786 73.3219 11.9252C52.64 4.45656 54.6448 11.4522 52.192 10.6351C51.8175 10.743 51.4267 10.8113 51.0849 10.8831C49.1864 11.4941 48.5418 11.3052 48.2918 13.4372C46.5737 29.8995 24.6598 24.2177 26.4572 10.7144C24.6776 10.6165 23.121 9.84672 21.2392 10.5983C19.9326 23.3188 9.70019 23.8322 6.62079 19.4226C4.29868 16.362 5.21949 11.7433 2.02758 9.33556C0.767566 10.3904 0.686452 6.83025 0.978376 6.16484" fill="black"/>
</svg>
